<?xml version="1.0" encoding="UTF-8" standalone="no"?>
<!-- Created with Inkscape (http://www.inkscape.org/) -->

<svg
   width="95mm"
   height="160mm"
   viewBox="0 0 95 160"
   version="1.1"
   id="svg2632"
   inkscape:version="1.1.1 (3bf5ae0, 2021-09-20)"
   sodipodi:docname="estante.svg"
   xmlns:inkscape="http://www.inkscape.org/namespaces/inkscape"
   xmlns:sodipodi="http://sodipodi.sourceforge.net/DTD/sodipodi-0.dtd"
   xmlns="http://www.w3.org/2000/svg"
   xmlns:svg="http://www.w3.org/2000/svg">
  <sodipodi:namedview
     id="namedview2634"
     pagecolor="#ffffff"
     bordercolor="#666666"
     borderopacity="1.0"
     inkscape:pageshadow="2"
     inkscape:pageopacity="0.0"
     inkscape:pagecheckerboard="0"
     inkscape:document-units="mm"
     showgrid="false"
     width="100mm"
     inkscape:zoom="0.75024142"
     inkscape:cx="945.69558"
     inkscape:cy="263.24859"
     inkscape:window-width="1920"
     inkscape:window-height="1016"
     inkscape:window-x="0"
     inkscape:window-y="28"
     inkscape:window-maximized="1"
     inkscape:current-layer="layer1" />
  <defs
     id="defs2629" />
  <g
     inkscape:label="Camada 1"
     inkscape:groupmode="layer"
     id="layer1">
    <path
       d="m 73.555981,121.35198 a 6.4294067,6.4294067 0 0 1 2.5779,-7.96004 c 0.43587,-0.26501 0.0374,-0.95173 -0.40062,-0.68538 a 7.1457872,7.1457872 0 0 0 -2.86265,9.04604 c 0.20025,0.46825 0.88422,0.0643 0.68538,-0.40062 z"
       fill="#3f3d56"
       id="path1185"
       style="stroke-width:0.264583" />
    <path
       d="m 73.783041,122.41952 c -1.07058,-1.89664 -0.81865,-4.16639 -0.43358,-6.21741 0.40198,-2.14109 0.92892,-4.31501 0.473,-6.49261 a 5.9602687,5.9602687 0 0 0 -1.41631,-2.83997 c -0.34676,-0.37661 -0.90695,0.18582 -0.56127,0.56127 1.34641,1.46235 1.50251,3.58373 1.28414,5.46773 -0.25758,2.22214 -0.98758,4.38749 -0.89696,6.64554 a 7.1971746,7.1971746 0 0 0 0.8656,3.27609 0.39717133,0.39717133 0 0 0 0.68538,-0.40063 z"
       fill="#3f3d56"
       id="path1187"
       style="stroke-width:0.264583" />
    <path
       d="m 79.528631,128.47622 h -13.49375 a 1.1919691,1.1919691 0 0 1 -1.19062,-1.19062 v -3.96359 a 3.8460283,3.8460283 0 0 1 3.8417,-3.84162 h 1.97914 a 0.39730891,0.39730891 0 0 0 0.39688,-0.39688 v -1.85208 a 0.6622362,0.6622362 0 0 1 0.66146,-0.66146 h 2.11666 a 0.6622362,0.6622362 0 0 1 0.66146,0.66146 v 1.85208 a 0.39730891,0.39730891 0 0 0 0.39688,0.39688 h 1.97914 a 3.8460309,3.8460309 0 0 1 3.84169,3.84162 v 3.96359 a 1.1919691,1.1919691 0 0 1 -1.19064,1.19062 z"
       fill="#cccccc"
       id="path1189"
       style="stroke-width:0.264583" />
    <path
       d="m 72.989161,104.6742 c 0.2841,1.50778 -0.0676,2.83975 -0.78563,2.97504 -0.71799,0.13529 -1.53035,-0.97734 -1.81446,-2.48513 -0.2841,-1.50778 0.58966,-4.01507 0.58966,-4.01507 0,0 1.72632,2.01737 2.01043,3.52516 z"
       fill="#6c63ff"
       id="path1191"
       style="stroke-width:0.264583" />
    <path
       d="m 78.437871,111.68894 c -0.8997,1.24285 -2.10882,1.90308 -2.70065,1.47465 -0.59184,-0.42842 -0.34227,-1.78326 0.55743,-3.02611 0.89969,-1.24286 3.32123,-2.33194 3.32123,-2.33194 0,0 -0.27833,2.64054 -1.17801,3.8834 z"
       fill="#6c63ff"
       id="path1193"
       style="stroke-width:0.264583" />
    <path
       d="m 48.685151,26.101976 a 6.4294067,6.4294067 0 0 1 2.5779,-7.960032 c 0.43586,-0.265014 0.0374,-0.95173 -0.40062,-0.685379 a 7.1457872,7.1457872 0 0 0 -2.86265,9.046033 c 0.20025,0.468249 0.88422,0.06433 0.68538,-0.400622 z"
       fill="#3f3d56"
       id="path1195"
       style="stroke-width:0.264583" />
    <path
       d="m 48.912201,27.169525 c -1.07058,-1.896642 -0.81864,-4.166394 -0.43357,-6.217417 0.40198,-2.14109 0.92892,-4.315005 0.473,-6.49261 a 5.9602687,5.9602687 0 0 0 -1.41632,-2.839964 c -0.34675,-0.376613 -0.90695,0.185814 -0.56126,0.561266 1.34641,1.462352 1.50251,3.583728 1.28413,5.467728 -0.25757,2.22214 -0.98757,4.387496 -0.89695,6.64554 a 7.1971746,7.1971746 0 0 0 0.8656,3.276089 0.39717133,0.39717133 0 0 0 0.68538,-0.400621 z"
       fill="#3f3d56"
       id="path1197"
       style="stroke-width:0.264583" />
    <path
       d="m 54.657801,33.226224 h -13.49375 a 1.1919479,1.1919479 0 0 1 -1.19063,-1.190625 v -3.963583 a 3.8460441,3.8460441 0 0 1 3.84166,-3.841625 h 1.97918 a 0.39730891,0.39730891 0 0 0 0.39687,-0.396875 v -1.852084 a 0.66221503,0.66221503 0 0 1 0.66146,-0.661458 h 2.11667 a 0.66221503,0.66221503 0 0 1 0.66146,0.661458 v 1.852084 a 0.39730891,0.39730891 0 0 0 0.39687,0.396875 h 1.97918 a 3.8460441,3.8460441 0 0 1 3.84165,3.841625 v 3.963583 a 1.1919479,1.1919479 0 0 1 -1.19062,1.190625 z"
       fill="#cccccc"
       id="path1199"
       style="stroke-width:0.264583" />
    <path
       d="m 48.118321,9.424199 c 0.2841,1.507784 -0.0676,2.839754 -0.78562,2.975041 -0.718,0.135287 -1.53035,-0.977342 -1.81446,-2.485125 -0.2841,-1.507784 0.58966,-4.015074 0.58966,-4.015074 0,0 1.72632,2.017374 2.01042,3.525158 z"
       fill="#6c63ff"
       id="path1201"
       style="stroke-width:0.264583" />
    <path
       d="m 53.567031,16.438941 c -0.89969,1.242851 -2.10881,1.903076 -2.70064,1.474652 -0.59184,-0.428424 -0.34227,-1.783262 0.55742,-3.026116 0.89969,-1.242854 3.32123,-2.33194 3.32123,-2.33194 0,0 -0.27832,2.640545 -1.17801,3.883404 z"
       fill="#6c63ff"
       id="path1203"
       style="stroke-width:0.264583" />
    <rect
       x="11.001554"
       y="74.104355"
       width="10.847917"
       height="3.96875"
       fill="#6c63ff"
       id="rect1205"
       style="stroke-width:0.264583" />
    <rect
       x="11.001554"
       y="87.068932"
       width="10.847917"
       height="3.96875"
       fill="#6c63ff"
       id="rect1207"
       style="stroke-width:0.264583" />
    <path
       d="M 87.995301,159.0356 H 7.0328011 A 4.5029675,4.5029675 0 0 1 2.534881,154.53768 V 6.635599 A 4.5029675,4.5029675 0 0 1 7.0328011,2.1376819 H 87.995301 a 4.5029887,4.5029887 0 0 1 4.49791,4.4979171 V 154.53768 a 4.5029887,4.5029887 0 0 1 -4.49791,4.49792 z M 7.0328011,2.6668489 A 3.9732479,3.9732479 0 0 0 3.0640511,6.635599 V 154.53768 a 3.9732479,3.9732479 0 0 0 3.96875,3.96875 H 87.995301 a 3.9732479,3.9732479 0 0 0 3.96875,-3.96875 V 6.635599 a 3.9732479,3.9732479 0 0 0 -3.96875,-3.9687501 z"
       fill="#3f3d56"
       id="path1209"
       style="stroke-width:0.264583" />
    <rect
       x="2.7994661"
       y="32.684525"
       width="89.429169"
       height="0.52916664"
       fill="#3f3d56"
       id="rect1211"
       style="stroke-width:0.264583" />
    <rect
       x="2.7994661"
       y="64.442917"
       width="89.429169"
       height="0.52916664"
       fill="#3f3d56"
       id="rect1213"
       style="stroke-width:0.264583" />
    <rect
       x="2.7994661"
       y="96.201195"
       width="89.429169"
       height="0.52916664"
       fill="#3f3d56"
       id="rect1215"
       style="stroke-width:0.264583" />
    <rect
       x="2.7994661"
       y="127.95959"
       width="89.429169"
       height="0.52916664"
       fill="#3f3d56"
       id="rect1217"
       style="stroke-width:0.264583" />
    <path
       d="m 21.055721,96.85851 h -8.99584 A 1.3244512,1.3244512 0 0 1 10.736971,95.5356 V 69.871015 a 1.3244512,1.3244512 0 0 1 1.32291,-1.322917 h 8.99584 a 1.3244512,1.3244512 0 0 1 1.32291,1.322917 V 95.5356 a 1.3244512,1.3244512 0 0 1 -1.32291,1.32291 z m -8.99584,-27.781245 a 0.79463634,0.79463634 0 0 0 -0.79375,0.79375 V 95.5356 a 0.79463634,0.79463634 0 0 0 0.79375,0.79375 h 8.99584 a 0.79463899,0.79463899 0 0 0 0.79375,-0.79375 V 69.871015 a 0.79463899,0.79463899 0 0 0 -0.79375,-0.79375 z"
       fill="#3f3d56"
       id="path1219"
       style="stroke-width:0.264583" />
    <rect
       x="27.670301"
       y="74.104355"
       width="10.847917"
       height="3.96875"
       fill="#6c63ff"
       id="rect1221"
       style="stroke-width:0.264583" />
    <rect
       x="27.670301"
       y="87.068932"
       width="10.847917"
       height="3.96875"
       fill="#6c63ff"
       id="rect1223"
       style="stroke-width:0.264583" />
    <path
       d="m 37.724471,96.85851 h -8.99584 A 1.3244512,1.3244512 0 0 1 27.405721,95.5356 V 69.871015 a 1.3244512,1.3244512 0 0 1 1.32291,-1.322917 h 8.99584 a 1.3244512,1.3244512 0 0 1 1.32291,1.322917 V 95.5356 a 1.3244512,1.3244512 0 0 1 -1.32291,1.32291 z m -8.99584,-27.781245 a 0.79463634,0.79463634 0 0 0 -0.79375,0.79375 V 95.5356 a 0.79463634,0.79463634 0 0 0 0.79375,0.79375 h 8.99584 a 0.79463899,0.79463899 0 0 0 0.79375,-0.79375 V 69.871015 a 0.79463899,0.79463899 0 0 0 -0.79375,-0.79375 z"
       fill="#3f3d56"
       id="path1225"
       style="stroke-width:0.264583" />
    <rect
       x="54.128628"
       y="42.08976"
       width="10.847917"
       height="3.96875"
       fill="#6c63ff"
       id="rect1227"
       style="stroke-width:0.264583" />
    <rect
       x="54.128628"
       y="55.054344"
       width="10.847917"
       height="3.96875"
       fill="#6c63ff"
       id="rect1229"
       style="stroke-width:0.264583" />
    <path
       d="m 64.182801,64.843932 h -8.99584 a 1.3244512,1.3244512 0 0 1 -1.32291,-1.322917 V 37.856432 a 1.3244512,1.3244512 0 0 1 1.32291,-1.322917 h 8.99584 a 1.3244327,1.3244327 0 0 1 1.32291,1.322917 v 25.664583 a 1.3244327,1.3244327 0 0 1 -1.32291,1.322917 z m -8.99584,-27.78125 a 0.79463634,0.79463634 0 0 0 -0.79375,0.79375 v 25.664583 a 0.79463634,0.79463634 0 0 0 0.79375,0.79375 h 8.99584 a 0.79461782,0.79461782 0 0 0 0.79375,-0.79375 V 37.856432 a 0.79461782,0.79461782 0 0 0 -0.79375,-0.79375 z"
       fill="#3f3d56"
       id="path1231"
       style="stroke-width:0.264583" />
    <rect
       x="70.797379"
       y="42.08976"
       width="10.847917"
       height="3.96875"
       fill="#6c63ff"
       id="rect1233"
       style="stroke-width:0.264583" />
    <rect
       x="70.797379"
       y="55.054344"
       width="10.847917"
       height="3.96875"
       fill="#6c63ff"
       id="rect1235"
       style="stroke-width:0.264583" />
    <path
       d="m 80.851551,64.843932 h -8.99584 a 1.3244327,1.3244327 0 0 1 -1.32291,-1.322917 V 37.856432 a 1.3244327,1.3244327 0 0 1 1.32291,-1.322917 h 8.99584 a 1.3244327,1.3244327 0 0 1 1.32291,1.322917 v 25.664583 a 1.3244327,1.3244327 0 0 1 -1.32291,1.322917 z m -8.99584,-27.78125 a 0.79461782,0.79461782 0 0 0 -0.79375,0.79375 v 25.664583 a 0.79461782,0.79461782 0 0 0 0.79375,0.79375 h 8.99584 a 0.79461782,0.79461782 0 0 0 0.79375,-0.79375 V 37.856432 a 0.79461782,0.79461782 0 0 0 -0.79375,-0.79375 z"
       fill="#3f3d56"
       id="path1237"
       style="stroke-width:0.264583" />
    <rect
       x="12.431348"
       y="85.379166"
       width="10.847917"
       height="3.96875"
       transform="rotate(-20.59468)"
       fill="#6c63ff"
       id="rect1239"
       style="stroke-width:0.264583" />
    <rect
       x="12.431334"
       y="98.343765"
       width="10.847917"
       height="3.96875"
       transform="rotate(-20.59468)"
       fill="#6c63ff"
       id="rect1241"
       style="stroke-width:0.264583" />
    <path
       d="m 50.197961,96.56292 a 1.3252979,1.3252979 0 0 1 -1.23768,-0.85834 l -9.02765,-24.024373 a 1.3245227,1.3245227 0 0 1 0.77298,-1.703652 l 8.421,-3.164279 a 1.3227182,1.3227182 0 0 1 1.70371,0.77308 l 9.02764,24.024374 a 1.32452,1.32452 0 0 1 -0.77298,1.70365 h -3e-5 l -8.42097,3.16428 a 1.3218213,1.3218213 0 0 1 -0.46602,0.0853 z m -0.60555,-29.306475 a 0.79526341,0.79526341 0 0 0 -0.27967,0.05116 l -8.42093,3.164279 a 0.79477657,0.79477657 0 0 0 -0.46383,1.022289 l 9.02765,24.024377 a 0.79366797,0.79366797 0 0 0 1.02222,0.46379 l 8.42094,-3.16428 a 0.79477657,0.79477657 0 0 0 0.46382,-1.02229 l -9.02764,-24.024369 a 0.79524489,0.79524489 0 0 0 -0.74256,-0.514956 z"
       fill="#3f3d56"
       id="path1243"
       style="stroke-width:0.264583" />
    <rect
       x="-10.67258"
       y="43.062473"
       width="10.847917"
       height="3.96875"
       transform="rotate(-20.59468)"
       fill="#6c63ff"
       id="rect1245"
       style="stroke-width:0.264583" />
    <rect
       x="-10.67258"
       y="56.027065"
       width="10.847917"
       height="3.96875"
       transform="rotate(-20.59468)"
       fill="#6c63ff"
       id="rect1247"
       style="stroke-width:0.264583" />
    <path
       d="m 13.685461,65.077509 a 1.3252979,1.3252979 0 0 1 -1.23768,-0.858346 L 3.4201311,40.19479 a 1.3245227,1.3245227 0 0 1 0.77298,-1.703652 l 8.4209999,-3.164279 a 1.3227182,1.3227182 0 0 1 1.70371,0.773081 l 9.02764,24.024373 a 1.32452,1.32452 0 0 1 -0.77298,1.703652 h -3e-5 l -8.42097,3.164279 a 1.3218213,1.3218213 0 0 1 -0.46602,0.08526 z m -0.60555,-29.30648 a 0.79526341,0.79526341 0 0 0 -0.27967,0.05116 l -8.4209299,3.164279 a 0.79477657,0.79477657 0 0 0 -0.46383,1.02229 L 12.943131,64.03313 a 0.79366797,0.79366797 0 0 0 1.02222,0.463796 l 8.42094,-3.164279 a 0.79477657,0.79477657 0 0 0 0.46382,-1.022289 l -9.02764,-24.024373 a 0.79524489,0.79524489 0 0 0 -0.74256,-0.514956 z"
       fill="#3f3d56"
       id="path1249"
       style="stroke-width:0.264583" />
  </g>
</svg>
